<svg xmlns="http://www.w3.org/2000/svg" xmlns:xlink="http://www.w3.org/1999/xlink"><defs><path id="path-1" d="M3.808 15.596H0V.485h7.616v15.11z"/></defs><symbol id="icon-social-fb" viewBox="0 0 8 16"><title>B7F80753-C28E-4FA6-B480-DAD9A0DB6F16</title><g fill-rule="evenodd"><mask id="mask-2"><use xlink:href="#path-1"/></mask><path d="M4.944 15.596V8.703H7.19l.336-2.686H4.944V4.302c0-.778.21-1.308 1.292-1.308h1.38V.59A17.822 17.822 0 0 0 5.605.485c-1.991 0-3.354 1.251-3.354 3.55v1.982H0v2.686H2.25v6.893h2.693z" mask="url(#mask-2)"/></g></symbol><symbol id="icon-social-im" viewBox="0 0 14 14"><title>3F2A1FAA-CD7D-4B5F-8D6C-DA3A7BA134DF</title><path d="M12.336 0H1.664C.745 0 0 .743 0 1.66v10.68C0 13.257.745 14 1.664 14h10.672c.919 0 1.664-.743 1.664-1.66V1.66C14 .743 13.255 0 12.336 0zm-2.273 2.187c0-.241.196-.437.437-.437h1.312c.242 0 .438.196.438.437V3.5a.438.438 0 0 1-.438.437H10.5a.437.437 0 0 1-.437-.437V2.187zM7.016 4.33A2.69 2.69 0 0 1 9.71 7.016a2.69 2.69 0 0 1-2.693 2.686 2.69 2.69 0 0 1-2.692-2.686A2.69 2.69 0 0 1 7.016 4.33zm5.672 7.92a.438.438 0 0 1-.438.438H1.75a.438.438 0 0 1-.438-.438V5.687h1.75c-.227.328-.305.94-.305 1.329a4.26 4.26 0 0 0 8.518 0c0-.389-.055-.991-.337-1.329h1.75v6.563z" fill-rule="evenodd"/></symbol><symbol id="icon-social-tw" viewBox="0 0 14 12"><title>4BDB7DDC-5286-4A1B-999C-FED2339100A8</title><path d="M13.614.216a5.647 5.647 0 0 1-1.825.713A2.833 2.833 0 0 0 9.692 0c-1.585 0-2.87 1.319-2.87 2.945a3 3 0 0 0 .073.67C4.508 3.494 2.392 2.323.975.539a2.999 2.999 0 0 0-.39 1.482c0 1.021.508 1.923 1.279 2.451a2.82 2.82 0 0 1-1.302-.367v.036c0 1.427.99 2.618 2.305 2.888a2.799 2.799 0 0 1-1.297.052C1.935 8.25 2.995 9.1 4.252 9.123A5.672 5.672 0 0 1 0 10.344a7.995 7.995 0 0 0 4.403 1.323c5.284 0 8.172-4.487 8.172-8.38 0-.128-.002-.256-.007-.381A5.892 5.892 0 0 0 14 1.38a5.626 5.626 0 0 1-1.65.464 2.94 2.94 0 0 0 1.264-1.63" fill-rule="evenodd"/></symbol><symbol id="icon-social-vk" viewBox="0 0 21 12"><title>0F102D84-CCB2-4769-9301-3C722BD46BAB</title><path d="M10.292 11.95h1.257s.38-.042.574-.251c.178-.192.172-.552.172-.552s-.024-1.687.759-1.936c.772-.245 1.763 1.63 2.813 2.352.795.545 1.398.426 1.398.426l2.81-.04s1.469-.09.772-1.245c-.057-.095-.406-.855-2.089-2.417-1.761-1.635-1.525-1.37.597-4.198 1.292-1.722 1.808-2.774 1.647-3.224C20.848.436 19.898.55 19.898.55l-3.163.02s-.235-.032-.409.072c-.17.102-.279.34-.279.34s-.5 1.332-1.168 2.465c-1.408 2.392-1.971 2.518-2.202 2.37-.535-.346-.401-1.39-.401-2.133 0-2.317.351-3.283-.685-3.534-.344-.083-.597-.137-1.476-.146C8.986-.01 8.03.006 7.49.27c-.36.176-.637.569-.468.591.21.028.683.128.934.47.324.44.312 1.43.312 1.43s.187 2.73-.435 3.068c-.426.232-1.01-.242-2.266-2.412-.644-1.111-1.13-2.34-1.13-2.34s-.093-.23-.26-.352C3.974.577 3.691.53 3.691.53L.686.55S.235.561.069.757c-.148.175-.012.536-.012.536S2.41 6.799 5.074 9.573c2.444 2.544 5.218 2.377 5.218 2.377" fill-rule="evenodd"/></symbol></svg>